<svg version="1.2" xmlns="http://www.w3.org/2000/svg" viewBox="0 0 373 329" width="373" height="329">
	<title>ATHM logo full color_new-ai</title>
	<style>
		.s0 { fill: #747479 } 
		.s1 { fill: #b92029 } 
	</style>
	<g id="Warstwa 1">
		<g id="&lt;Group&gt;">
			<path id="&lt;Path&gt;" class="s0" d="m156.7 292.2l1.8 3.7 4.2 0.6-3 2.9 0.7 4.1-3.7-1.9-3.7 1.9 0.7-4.1-3-2.9 4.2-0.6z"/>
			<path id="&lt;Path&gt;" class="s0" d="m178.5 292.2l1.9 3.7 4.1 0.6-3 2.9 0.7 4.1-3.7-1.9-3.7 1.9 0.8-4.1-3-2.9 4.1-0.6z"/>
			<path id="&lt;Path&gt;" class="s0" d="m200.4 292.2l1.8 3.7 4.1 0.6-2.9 2.9 0.7 4.1-3.7-1.9-3.7 1.9 0.7-4.1-3-2.9 4.1-0.6z"/>
			<path id="&lt;Path&gt;" class="s0" d="m222.2 292.2l1.9 3.7 4.1 0.6-3 2.9 0.7 4.1-3.7-1.9-3.7 1.9 0.7-4.1-2.9-2.9 4.1-0.6z"/>
		</g>
		<path id="&lt;Compound Path&gt;" fill-rule="evenodd" class="s0" d="m35.3 167.2l24 59.6h-7.2q-6.9-17-7.1-17.6c-0.6 0-21.3 0-21.9 0q-0.2 0.6-6.9 17.6h-4.8l23.5-58.6zm8.4 38.6c-0.4-1.2-8.7-22.6-9.4-24.5-0.8 1.9-9.3 23.3-9.8 24.5 1.2 0 18.1 0 19.2 0zm60.6-22.5v45.4q-27.4-35.6-29-37.6 0 2.4 0 35.7h-3.4v-43.5h4.6q22.9 30 24.4 31.9 0-2.4 0-31.9zm52.9 22.5c0 5.7-1.8 10.7-5.5 14.7-3.7 4.1-9.3 6.3-15.9 6.3h-14v-43.5h9.4c16 0 26 8.6 26 22.5zm-6-0.8c0-11.9-6.8-18.5-19.1-18.5q-3.9 0-4.7 0c0 0.9 0 36.3 0 37.1q0.8 0 5.6 0c11.6 0 18.2-6.8 18.2-18.6zm25.8 18.6q0.8 0 20 0v3.2h-25.6v-43.5h24.9v3.2q-18.5 0-19.3 0c0 0.8 0 15.8 0 16.6q0.8 0 18.2 0v3q-17.4 0-18.2 0c0 0.9 0 16.7 0 17.5zm49.3-17.2q1 1.4 14.5 20.4h-6.9l-15.8-23.1h7.1c6 0 9.5-3.1 9.5-8.4 0-5.8-3.7-8.8-11.1-8.8q-5.9 0-6.7 0 0 0.9 0 40.3h-5.6v-43.5h13.1c10.2 0 16.3 4.7 16.3 12.4 0 6.5-5.4 10.8-13.6 10.8q-0.4 0-0.8-0.1zm50.8 7.8c0 8-5.5 13.7-13.2 13.7-5 0-8.8-2.2-11.2-6.5l-0.2-0.4 2.9-1.8 0.2 0.5c1.8 3.4 4.9 5.5 8.4 5.5 4.6 0 7.5-3.5 7.5-8.9 0-4.3-1.5-6.3-6.4-8.5l-2.7-1.2c-6.1-2.7-9.6-5.4-9.6-11.3 0-7.2 5.6-12.9 12.7-12.9 4.3 0 7.6 2.1 10.1 6.3l0.3 0.3-2.7 1.6-0.2-0.4c-1.6-3.2-4.1-5-7-5-4.5 0-8 3.5-8 8 0 4.6 2.4 6.5 7.2 8.6l2.8 1.1c5.7 2.5 9.1 5.1 9.1 11.3zm20-30.9v43.4h-5.6v-43.4zm59.2 43.5h-7.2q-6.9-17-7.1-17.5c-0.6 0-21.3 0-21.9 0q-0.2 0.5-6.9 17.5h-4.8l23.4-58.6 0.4-1zm-15.5-21.1c-0.4-1.1-8.7-22.5-9.5-24.4-0.7 1.9-9.3 23.3-9.7 24.4 1.2 0 18 0 19.2 0z"/>
		<path id="&lt;Compound Path&gt;" fill-rule="evenodd" class="s0" d="m156 245.6v24.7h-3.5q0-10.7 0-11.5c-0.8 0-11 0-11.8 0q0 0.8 0 11.4h-3.5v-24.6h3.5q0 10.2 0 11.1c0.8 0 11 0 11.8 0q0-0.9 0-11.1zm27.6 3.2c2.3 2.4 3.5 5.6 3.5 9.2 0 3.6-1.2 6.8-3.4 9.2-2.3 2.4-5.2 3.6-8.4 3.6-3.1 0-6-1.2-8.3-3.6-2.3-2.4-3.5-5.6-3.5-9.2 0-3.6 1.3-6.8 3.5-9.2 2.2-2.4 5.2-3.7 8.3-3.7 3.2 0 6.1 1.3 8.3 3.7zm-0.1 9.2c0-6.6-3.3-11-8.1-11-4.9 0-8.1 4.4-8.1 11 0 6.5 3.2 10.9 8.1 10.9 4.8 0 8.1-4.4 8.1-10.9zm22.7-12.4v2.2q-5.2 0-5.9 0 0 0.9 0 22.5h-3.5q0-21.6 0-22.5-0.8 0-5.9 0v-2.2zm9 22.5q0.9 0 11.2 0v2.2h-14.7v-24.7h14.3v2.2q-9.9 0-10.8 0c0 0.8 0 8.1 0 8.9q0.8 0 10.2 0v2q-9.4 0-10.2 0c0 0.8 0 8.6 0 9.4zm31.3 0v2.2h-12.5v-24.7h3.5q0 21.7 0 22.5 0.8 0 9 0z"/>
		<g id="&lt;Group&gt;">
			<path id="&lt;Path&gt;" class="s1" d="m164.2 150.8h-13.4v-13.4h13.4z"/>
			<path id="&lt;Path&gt;" class="s1" d="m163.8 133.8h-12.5v-12.4h12.5z"/>
			<path id="&lt;Path&gt;" class="s1" d="m163.3 116.8h-11.5v-11.5h11.5z"/>
			<path id="&lt;Path&gt;" class="s1" d="m162.8 99.8h-10.5v-10.5h10.5z"/>
			<path id="&lt;Path&gt;" class="s1" d="m162.3 82.8h-9.5v-9.5h9.5z"/>
			<path id="&lt;Path&gt;" class="s1" d="m161.9 65.8h-8.7v-8.6h8.7z"/>
			<path id="&lt;Path&gt;" class="s1" d="m161.4 48.8h-7.7v-7.6h7.7z"/>
			<path id="&lt;Path&gt;" class="s1" d="m180.8 150.8h-13.4v-13.4h13.4z"/>
			<path id="&lt;Path&gt;" class="s1" d="m180.3 133.8h-12.5v-12.4h12.5z"/>
			<path id="&lt;Path&gt;" class="s1" d="m179.8 116.8h-11.4v-11.5h11.4z"/>
			<path id="&lt;Path&gt;" class="s1" d="m179.3 99.8h-10.5v-10.5h10.5z"/>
			<path id="&lt;Path&gt;" class="s1" d="m178.8 82.8h-9.5v-9.5h9.5z"/>
			<path id="&lt;Path&gt;" class="s1" d="m178.4 65.8h-8.7v-8.6h8.7z"/>
			<path id="&lt;Path&gt;" class="s1" d="m177.9 48.8h-7.7v-7.6h7.7z"/>
			<path id="&lt;Path&gt;" class="s1" d="m197.3 150.8h-13.4v-13.4h13.4z"/>
			<path id="&lt;Path&gt;" class="s1" d="m196.8 133.8h-12.4v-12.4h12.4z"/>
			<path id="&lt;Path&gt;" class="s1" d="m196.3 116.8h-11.4v-11.5h11.4z"/>
			<path id="&lt;Path&gt;" class="s1" d="m195.9 99.8h-10.6v-10.5h10.6z"/>
			<path id="&lt;Path&gt;" class="s1" d="m195.4 82.8h-9.6v-9.5h9.6z"/>
			<path id="&lt;Path&gt;" class="s1" d="m194.9 65.8h-8.6v-8.6h8.6z"/>
			<path id="&lt;Path&gt;" class="s1" d="m194.4 48.8h-7.6v-7.6h7.6z"/>
			<path id="&lt;Path&gt;" class="s1" d="m177.4 32.2h-6.7v-6.7h6.7z"/>
			<path id="&lt;Path&gt;" class="s1" d="m193.9 32.2h-6.7v-6.7h6.7z"/>
			<path id="&lt;Path&gt;" class="s1" d="m213.8 150.8h-13.4v-13.4h13.4z"/>
			<path id="&lt;Path&gt;" class="s1" d="m213.3 133.8h-12.4v-12.4h12.4z"/>
			<path id="&lt;Path&gt;" class="s1" d="m212.8 116.8h-11.4v-11.5h11.4z"/>
			<path id="&lt;Path&gt;" class="s1" d="m212.4 99.8h-10.6v-10.5h10.6z"/>
			<path id="&lt;Path&gt;" class="s1" d="m211.9 82.8h-9.6v-9.5h9.6z"/>
			<path id="&lt;Path&gt;" class="s1" d="m211.4 65.8h-8.6v-8.6h8.6z"/>
			<path id="&lt;Path&gt;" class="s1" d="m210.9 48.8h-7.6v-7.6h7.6z"/>
			<path id="&lt;Path&gt;" class="s1" d="m125.1 152.1q54.1 18.2 111.7-1.7-58.5 30.1-111.7 1.7z"/>
		</g>
	</g>
</svg>